# xmcd
# 
# Track frame offsets:
#     150
#     12963
#     25638
#     38334
#     50029
#     61052
#     71133
#     82493
#     93268
#     105032
#     118306
#     128986
#     143542
#     156184
#     165805
#     175608
#     188079
#     200602
#     210435
#     222340
#     234139
#     245298
#     257314
#     267428
# 
# Disc length: 3733
# 
# Revision: 0
# Processed by: cddbd v1.5.2PL0 Copyright (c) Steve Scherf et al.
# Submitted via: fre:ac v1.0.27
# 
DISCID=370e9318
DTITLE=Skeeter Davis - Country and Western Stars [CD3)
DYEAR=0
DGENRE=Country
TTITLE0=Makin`Believe
TTITLE1=Release Me
TTITLE2=Cheatin`s a Sin
TTITLE3=There`s Poison in Your Heart
TTITLE4=I`ve Kissed You My Last Time
TTITLE5=Whose Shoulder Will You Cry On
TTITLE6=I Wasn`t God Who Made Honky Tonk Angles
TTITLE7=The Things I Might Have Been
TTITLE8=Paying for That Back Street Affair
TTITLE9=I Don`t Claim to Be an Angel
TTITLE10=I`m Toll Lonley to Smile
TTITLE11=Searchin for a Soldiers Grave
TTITLE12=Just When I Needed You
TTITLE13=Am I That Easy to Forget
TTITLE14=Have You Senn This Man
TTITLE15=Your Cheatin`Heart
TTITLE16=The One You Slip Around With
TTITLE17=The Devil`s Doll
TTITLE18=Chained to a Memory
TTITLE19=IForgot More Than You`ll Ever Know
TTITLE20=Standing in the Shadows
TTITLE21=Under Your Spell Again
TTITLE22=Set Him Free
TTITLE23=Let Those Brown Eyes Smile at Me
EXTD=
EXTT0=
EXTT1=
EXTT2=
EXTT3=
EXTT4=
EXTT5=
EXTT6=
EXTT7=
EXTT8=
EXTT9=
EXTT10=
EXTT11=
EXTT12=
EXTT13=
EXTT14=
EXTT15=
EXTT16=
EXTT17=
EXTT18=
EXTT19=
EXTT20=
EXTT21=
EXTT22=
EXTT23=
PLAYORDER=
